#N canvas 196 272 478 522 10;
#X obj 57 411 hip~ 5;
#X obj 57 389 tabread4~ table;
#X obj 57 270 +~ 1;
#N canvas 0 22 450 278 (subpatch) 0;
#X array table 16387 float 2;
#X coords 0 1 16387 -1 200 140 1 0 0;
#X restore 215 62 graph;
#X obj 57 248 *~ 256;
#X obj 90 132 r SetBufferSize;
#X obj 81 365 s BufferIndex;
#X obj 57 435 dac~ 1;
#X obj 81 343 snapshot~;
#X obj 117 283 t b f;
#X obj 117 308 metro 1;
#X obj 127 214 loadbang;
#X obj 117 262 / 44100;
#X obj 117 240 f 4096;
#X obj 57 93 adc~ 1;
#X obj 90 153 t f f;
#X connect 0 0 7 0;
#X connect 1 0 0 0;
#X connect 2 0 1 0;
#X connect 2 0 8 0;
#X connect 4 0 2 0;
#X connect 5 0 15 0;
#X connect 8 0 6 0;
#X connect 9 0 10 0;
#X connect 9 1 10 1;
#X connect 10 0 8 0;
#X connect 11 0 13 0;
#X connect 12 0 9 0;
#X connect 13 0 12 0;
#X connect 14 0 4 0;
#X connect 15 0 4 1;
#X connect 15 1 13 0;
