#N canvas 768 278 312 388 10;
#X obj 96 226 phasor~;
#X obj 96 53 r Speed;
#X obj 96 205 sig~ 1;
#X obj 104 141 /;
#X obj 104 78 r SetBufferSize;
#X obj 104 162 t b f;
#X obj 104 121 44100;
#X obj 96 185 * 1;
#X obj 104 99 trigger b f;
#X obj 96 248 dac~ 1;
#X connect 0 0 9 0;
#X connect 1 0 7 0;
#X connect 2 0 0 0;
#X connect 3 0 5 0;
#X connect 4 0 8 0;
#X connect 5 0 7 0;
#X connect 5 1 7 1;
#X connect 6 0 3 0;
#X connect 7 0 2 0;
#X connect 8 0 6 0;
#X connect 8 1 3 1;
